<svg xmlns="http://www.w3.org/2000/svg" version="1.1" xmlns:xlink="http://www.w3.org/1999/xlink" xmlns:svgjs="http://svgjs.dev/svgjs" viewBox="0 0 800 800"><g shape-rendering="crispEdges"><g transform="translate(0 -25)"><use xlink:href="#SvgjsSymbol1000" x="275" y="550" fill="hsl(286, 100%, 51%)"></use><use xlink:href="#SvgjsSymbol1001" x="275" y="550" fill="#fd59ff"></use><use xlink:href="#SvgjsSymbol1002" x="275" y="550" fill="#8e00cb"></use></g><g transform="translate(0 -25)"><use xlink:href="#SvgjsSymbol1000" x="512.5" y="400" fill="hsl(286, 100%, 51%)"></use><use xlink:href="#SvgjsSymbol1001" x="512.5" y="400" fill="#fd59ff"></use><use xlink:href="#SvgjsSymbol1002" x="512.5" y="400" fill="#8e00cb"></use></g><g transform="translate(0 -25)"><use xlink:href="#SvgjsSymbol1000" x="250" y="412.5" fill="hsl(286, 100%, 51%)"></use><use xlink:href="#SvgjsSymbol1001" x="250" y="412.5" fill="#fd59ff"></use><use xlink:href="#SvgjsSymbol1002" x="250" y="412.5" fill="#8e00cb"></use></g><g transform="translate(0 -25)"><use xlink:href="#SvgjsSymbol1000" x="562.5" y="600" fill="hsl(286, 100%, 51%)"></use><use xlink:href="#SvgjsSymbol1001" x="562.5" y="600" fill="#fd59ff"></use><use xlink:href="#SvgjsSymbol1002" x="562.5" y="600" fill="#8e00cb"></use></g><g transform="translate(0 -25)"><use xlink:href="#SvgjsSymbol1000" x="50" y="687.5" fill="hsl(286, 100%, 51%)"></use><use xlink:href="#SvgjsSymbol1001" x="50" y="687.5" fill="#fd59ff"></use><use xlink:href="#SvgjsSymbol1002" x="50" y="687.5" fill="#8e00cb"></use></g><g transform="translate(0 -25)"><use xlink:href="#SvgjsSymbol1000" x="187.5" y="537.5" fill="hsl(286, 100%, 51%)"></use><use xlink:href="#SvgjsSymbol1001" x="187.5" y="537.5" fill="#fd59ff"></use><use xlink:href="#SvgjsSymbol1002" x="187.5" y="537.5" fill="#8e00cb"></use></g><g transform="translate(0 -25)"><use xlink:href="#SvgjsSymbol1000" x="387.5" y="487.5" fill="hsl(286, 100%, 51%)"></use><use xlink:href="#SvgjsSymbol1001" x="387.5" y="487.5" fill="#fd59ff"></use><use xlink:href="#SvgjsSymbol1002" x="387.5" y="487.5" fill="#8e00cb"></use></g><g transform="translate(0 -25)"><use xlink:href="#SvgjsSymbol1000" x="275" y="750" fill="hsl(286, 100%, 51%)"></use><use xlink:href="#SvgjsSymbol1001" x="275" y="750" fill="#fd59ff"></use><use xlink:href="#SvgjsSymbol1002" x="275" y="750" fill="#8e00cb"></use></g><g transform="translate(0 -25)"><use xlink:href="#SvgjsSymbol1000" x="712.5" y="725" fill="hsl(286, 100%, 51%)"></use><use xlink:href="#SvgjsSymbol1001" x="712.5" y="725" fill="#fd59ff"></use><use xlink:href="#SvgjsSymbol1002" x="712.5" y="725" fill="#8e00cb"></use></g><g transform="translate(0 -25)"><use xlink:href="#SvgjsSymbol1000" x="712.5" y="400" fill="hsl(286, 100%, 51%)"></use><use xlink:href="#SvgjsSymbol1001" x="712.5" y="400" fill="#fd59ff"></use><use xlink:href="#SvgjsSymbol1002" x="712.5" y="400" fill="#8e00cb"></use></g><g transform="translate(0 -25)"><use xlink:href="#SvgjsSymbol1000" x="325" y="312.5" fill="hsl(286, 100%, 51%)"></use><use xlink:href="#SvgjsSymbol1001" x="325" y="312.5" fill="#fd59ff"></use><use xlink:href="#SvgjsSymbol1002" x="325" y="312.5" fill="#8e00cb"></use></g><g transform="translate(0 -25)"><use xlink:href="#SvgjsSymbol1000" x="37.5" y="400" fill="hsl(286, 100%, 51%)"></use><use xlink:href="#SvgjsSymbol1001" x="37.5" y="400" fill="#fd59ff"></use><use xlink:href="#SvgjsSymbol1002" x="37.5" y="400" fill="#8e00cb"></use></g><g transform="translate(0 -25)"><use xlink:href="#SvgjsSymbol1000" x="200" y="462.5" fill="hsl(286, 100%, 51%)"></use><use xlink:href="#SvgjsSymbol1001" x="200" y="462.5" fill="#fd59ff"></use><use xlink:href="#SvgjsSymbol1002" x="200" y="462.5" fill="#8e00cb"></use></g><g transform="translate(0 -25)"><use xlink:href="#SvgjsSymbol1000" x="400" y="650" fill="hsl(286, 100%, 51%)"></use><use xlink:href="#SvgjsSymbol1001" x="400" y="650" fill="#fd59ff"></use><use xlink:href="#SvgjsSymbol1002" x="400" y="650" fill="#8e00cb"></use></g><g transform="translate(0 -25)"><use xlink:href="#SvgjsSymbol1000" x="750" y="600" fill="hsl(286, 100%, 51%)"></use><use xlink:href="#SvgjsSymbol1001" x="750" y="600" fill="#fd59ff"></use><use xlink:href="#SvgjsSymbol1002" x="750" y="600" fill="#8e00cb"></use></g><g transform="translate(0 -25)"><use xlink:href="#SvgjsSymbol1000" x="575" y="350" fill="hsl(286, 100%, 51%)"></use><use xlink:href="#SvgjsSymbol1001" x="575" y="350" fill="#fd59ff"></use><use xlink:href="#SvgjsSymbol1002" x="575" y="350" fill="#8e00cb"></use></g><g transform="translate(0 -25)"><use xlink:href="#SvgjsSymbol1000" x="362.5" y="387.5" fill="hsl(286, 100%, 51%)"></use><use xlink:href="#SvgjsSymbol1001" x="362.5" y="387.5" fill="#fd59ff"></use><use xlink:href="#SvgjsSymbol1002" x="362.5" y="387.5" fill="#8e00cb"></use></g><g transform="translate(0 -25)"><use xlink:href="#SvgjsSymbol1000" x="375" y="512.5" fill="hsl(286, 100%, 51%)"></use><use xlink:href="#SvgjsSymbol1001" x="375" y="512.5" fill="#fd59ff"></use><use xlink:href="#SvgjsSymbol1002" x="375" y="512.5" fill="#8e00cb"></use></g><g transform="translate(0 -25)"><use xlink:href="#SvgjsSymbol1000" x="300" y="575" fill="hsl(286, 100%, 51%)"></use><use xlink:href="#SvgjsSymbol1001" x="300" y="575" fill="#fd59ff"></use><use xlink:href="#SvgjsSymbol1002" x="300" y="575" fill="#8e00cb"></use></g><g transform="translate(0 -25)"><use xlink:href="#SvgjsSymbol1000" x="262.5" y="625" fill="hsl(286, 100%, 51%)"></use><use xlink:href="#SvgjsSymbol1001" x="262.5" y="625" fill="#fd59ff"></use><use xlink:href="#SvgjsSymbol1002" x="262.5" y="625" fill="#8e00cb"></use></g><g transform="translate(0 -25)"><use xlink:href="#SvgjsSymbol1000" x="187.5" y="587.5" fill="hsl(286, 100%, 51%)"></use><use xlink:href="#SvgjsSymbol1001" x="187.5" y="587.5" fill="#fd59ff"></use><use xlink:href="#SvgjsSymbol1002" x="187.5" y="587.5" fill="#8e00cb"></use></g><g transform="translate(0 -25)"><use xlink:href="#SvgjsSymbol1000" x="112.5" y="500" fill="hsl(286, 100%, 51%)"></use><use xlink:href="#SvgjsSymbol1001" x="112.5" y="500" fill="#fd59ff"></use><use xlink:href="#SvgjsSymbol1002" x="112.5" y="500" fill="#8e00cb"></use></g><g transform="translate(0 -25)"><use xlink:href="#SvgjsSymbol1000" x="100" y="325" fill="hsl(286, 100%, 51%)"></use><use xlink:href="#SvgjsSymbol1001" x="100" y="325" fill="#fd59ff"></use><use xlink:href="#SvgjsSymbol1002" x="100" y="325" fill="#8e00cb"></use></g><g transform="translate(0 -25)"><use xlink:href="#SvgjsSymbol1000" x="25" y="287.5" fill="hsl(286, 100%, 51%)"></use><use xlink:href="#SvgjsSymbol1001" x="25" y="287.5" fill="#fd59ff"></use><use xlink:href="#SvgjsSymbol1002" x="25" y="287.5" fill="#8e00cb"></use></g><g transform="translate(0 -25)"><use xlink:href="#SvgjsSymbol1000" x="475" y="287.5" fill="hsl(286, 100%, 51%)"></use><use xlink:href="#SvgjsSymbol1001" x="475" y="287.5" fill="#fd59ff"></use><use xlink:href="#SvgjsSymbol1002" x="475" y="287.5" fill="#8e00cb"></use></g><g transform="translate(0 -25)"><use xlink:href="#SvgjsSymbol1000" x="737.5" y="287.5" fill="hsl(286, 100%, 51%)"></use><use xlink:href="#SvgjsSymbol1001" x="737.5" y="287.5" fill="#fd59ff"></use><use xlink:href="#SvgjsSymbol1002" x="737.5" y="287.5" fill="#8e00cb"></use></g><g transform="translate(0 -25)"><use xlink:href="#SvgjsSymbol1000" x="762.5" y="400" fill="hsl(286, 100%, 51%)"></use><use xlink:href="#SvgjsSymbol1001" x="762.5" y="400" fill="#fd59ff"></use><use xlink:href="#SvgjsSymbol1002" x="762.5" y="400" fill="#8e00cb"></use></g><g transform="translate(0 -25)"><use xlink:href="#SvgjsSymbol1000" x="725" y="662.5" fill="hsl(286, 100%, 51%)"></use><use xlink:href="#SvgjsSymbol1001" x="725" y="662.5" fill="#fd59ff"></use><use xlink:href="#SvgjsSymbol1002" x="725" y="662.5" fill="#8e00cb"></use></g><g transform="translate(0 -25)"><use xlink:href="#SvgjsSymbol1000" x="737.5" y="737.5" fill="hsl(286, 100%, 51%)"></use><use xlink:href="#SvgjsSymbol1001" x="737.5" y="737.5" fill="#fd59ff"></use><use xlink:href="#SvgjsSymbol1002" x="737.5" y="737.5" fill="#8e00cb"></use></g><g transform="translate(0 -25)"><use xlink:href="#SvgjsSymbol1000" x="737.5" y="737.5" fill="hsl(286, 100%, 51%)"></use><use xlink:href="#SvgjsSymbol1001" x="737.5" y="737.5" fill="#fd59ff"></use><use xlink:href="#SvgjsSymbol1002" x="737.5" y="737.5" fill="#8e00cb"></use></g><g transform="translate(0 -25)"><use xlink:href="#SvgjsSymbol1000" x="537.5" y="712.5" fill="hsl(286, 100%, 51%)"></use><use xlink:href="#SvgjsSymbol1001" x="537.5" y="712.5" fill="#fd59ff"></use><use xlink:href="#SvgjsSymbol1002" x="537.5" y="712.5" fill="#8e00cb"></use></g><g transform="translate(0 -25)"><use xlink:href="#SvgjsSymbol1000" x="350" y="725" fill="hsl(286, 100%, 51%)"></use><use xlink:href="#SvgjsSymbol1001" x="350" y="725" fill="#fd59ff"></use><use xlink:href="#SvgjsSymbol1002" x="350" y="725" fill="#8e00cb"></use></g><g transform="translate(0 -25)"><use xlink:href="#SvgjsSymbol1000" x="200" y="700" fill="hsl(286, 100%, 51%)"></use><use xlink:href="#SvgjsSymbol1001" x="200" y="700" fill="#fd59ff"></use><use xlink:href="#SvgjsSymbol1002" x="200" y="700" fill="#8e00cb"></use></g><g transform="translate(0 -25)"><use xlink:href="#SvgjsSymbol1000" x="137.5" y="650" fill="hsl(286, 100%, 51%)"></use><use xlink:href="#SvgjsSymbol1001" x="137.5" y="650" fill="#fd59ff"></use><use xlink:href="#SvgjsSymbol1002" x="137.5" y="650" fill="#8e00cb"></use></g><g transform="translate(0 -25)"><use xlink:href="#SvgjsSymbol1000" x="25" y="650" fill="hsl(286, 100%, 51%)"></use><use xlink:href="#SvgjsSymbol1001" x="25" y="650" fill="#fd59ff"></use><use xlink:href="#SvgjsSymbol1002" x="25" y="650" fill="#8e00cb"></use></g><g transform="translate(0 -25)"><use xlink:href="#SvgjsSymbol1000" x="62.5" y="775" fill="hsl(286, 100%, 51%)"></use><use xlink:href="#SvgjsSymbol1001" x="62.5" y="775" fill="#fd59ff"></use><use xlink:href="#SvgjsSymbol1002" x="62.5" y="775" fill="#8e00cb"></use></g><g transform="translate(0 -25)"><use xlink:href="#SvgjsSymbol1000" x="50" y="762.5" fill="hsl(286, 100%, 51%)"></use><use xlink:href="#SvgjsSymbol1001" x="50" y="762.5" fill="#fd59ff"></use><use xlink:href="#SvgjsSymbol1002" x="50" y="762.5" fill="#8e00cb"></use></g><g transform="translate(0 -25)"><use xlink:href="#SvgjsSymbol1000" x="37.5" y="762.5" fill="hsl(286, 100%, 51%)"></use><use xlink:href="#SvgjsSymbol1001" x="37.5" y="762.5" fill="#fd59ff"></use><use xlink:href="#SvgjsSymbol1002" x="37.5" y="762.5" fill="#8e00cb"></use></g><g transform="translate(0 -25)"><use xlink:href="#SvgjsSymbol1000" x="12.5" y="762.5" fill="hsl(286, 100%, 51%)"></use><use xlink:href="#SvgjsSymbol1001" x="12.5" y="762.5" fill="#fd59ff"></use><use xlink:href="#SvgjsSymbol1002" x="12.5" y="762.5" fill="#8e00cb"></use></g><g transform="translate(0 -25)"><use xlink:href="#SvgjsSymbol1000" x="0" y="737.5" fill="hsl(286, 100%, 51%)"></use><use xlink:href="#SvgjsSymbol1001" x="0" y="737.5" fill="#fd59ff"></use><use xlink:href="#SvgjsSymbol1002" x="0" y="737.5" fill="#8e00cb"></use></g><g transform="translate(0 -25)"><use xlink:href="#SvgjsSymbol1000" x="0" y="737.5" fill="hsl(286, 100%, 51%)"></use><use xlink:href="#SvgjsSymbol1001" x="0" y="737.5" fill="#fd59ff"></use><use xlink:href="#SvgjsSymbol1002" x="0" y="737.5" fill="#8e00cb"></use></g><g transform="translate(0 -25)"><use xlink:href="#SvgjsSymbol1000" x="25" y="725" fill="hsl(286, 100%, 51%)"></use><use xlink:href="#SvgjsSymbol1001" x="25" y="725" fill="#fd59ff"></use><use xlink:href="#SvgjsSymbol1002" x="25" y="725" fill="#8e00cb"></use></g><g transform="translate(0 -25)"><use xlink:href="#SvgjsSymbol1000" x="25" y="725" fill="hsl(286, 100%, 51%)"></use><use xlink:href="#SvgjsSymbol1001" x="25" y="725" fill="#fd59ff"></use><use xlink:href="#SvgjsSymbol1002" x="25" y="725" fill="#8e00cb"></use></g><g transform="translate(0 -25)"><use xlink:href="#SvgjsSymbol1000" x="25" y="712.5" fill="hsl(286, 100%, 51%)"></use><use xlink:href="#SvgjsSymbol1001" x="25" y="712.5" fill="#fd59ff"></use><use xlink:href="#SvgjsSymbol1002" x="25" y="712.5" fill="#8e00cb"></use></g><g transform="translate(0 -25)"><use xlink:href="#SvgjsSymbol1000" x="0" y="675" fill="hsl(286, 100%, 51%)"></use><use xlink:href="#SvgjsSymbol1001" x="0" y="675" fill="#fd59ff"></use><use xlink:href="#SvgjsSymbol1002" x="0" y="675" fill="#8e00cb"></use></g><g transform="translate(0 -25)"><use xlink:href="#SvgjsSymbol1000" x="37.5" y="637.5" fill="hsl(286, 100%, 51%)"></use><use xlink:href="#SvgjsSymbol1001" x="37.5" y="637.5" fill="#fd59ff"></use><use xlink:href="#SvgjsSymbol1002" x="37.5" y="637.5" fill="#8e00cb"></use></g><g transform="translate(0 -25)"><use xlink:href="#SvgjsSymbol1000" x="12.5" y="625" fill="hsl(286, 100%, 51%)"></use><use xlink:href="#SvgjsSymbol1001" x="12.5" y="625" fill="#fd59ff"></use><use xlink:href="#SvgjsSymbol1002" x="12.5" y="625" fill="#8e00cb"></use></g><g transform="translate(0 -25)"><use xlink:href="#SvgjsSymbol1000" x="12.5" y="600" fill="hsl(286, 100%, 51%)"></use><use xlink:href="#SvgjsSymbol1001" x="12.5" y="600" fill="#fd59ff"></use><use xlink:href="#SvgjsSymbol1002" x="12.5" y="600" fill="#8e00cb"></use></g><g transform="translate(0 -25)"><use xlink:href="#SvgjsSymbol1000" x="75" y="550" fill="hsl(286, 100%, 51%)"></use><use xlink:href="#SvgjsSymbol1001" x="75" y="550" fill="#fd59ff"></use><use xlink:href="#SvgjsSymbol1002" x="75" y="550" fill="#8e00cb"></use></g><g transform="translate(0 -25)"><use xlink:href="#SvgjsSymbol1000" x="75" y="537.5" fill="hsl(286, 100%, 51%)"></use><use xlink:href="#SvgjsSymbol1001" x="75" y="537.5" fill="#fd59ff"></use><use xlink:href="#SvgjsSymbol1002" x="75" y="537.5" fill="#8e00cb"></use></g><g transform="translate(0 -25)"><use xlink:href="#SvgjsSymbol1000" x="100" y="537.5" fill="hsl(286, 100%, 51%)"></use><use xlink:href="#SvgjsSymbol1001" x="100" y="537.5" fill="#fd59ff"></use><use xlink:href="#SvgjsSymbol1002" x="100" y="537.5" fill="#8e00cb"></use></g><g transform="translate(0 -25)"><use xlink:href="#SvgjsSymbol1000" x="137.5" y="550" fill="hsl(286, 100%, 51%)"></use><use xlink:href="#SvgjsSymbol1001" x="137.5" y="550" fill="#fd59ff"></use><use xlink:href="#SvgjsSymbol1002" x="137.5" y="550" fill="#8e00cb"></use></g><g transform="translate(0 -25)"><use xlink:href="#SvgjsSymbol1000" x="162.5" y="600" fill="hsl(286, 100%, 51%)"></use><use xlink:href="#SvgjsSymbol1001" x="162.5" y="600" fill="#fd59ff"></use><use xlink:href="#SvgjsSymbol1002" x="162.5" y="600" fill="#8e00cb"></use></g><g transform="translate(0 -25)"><use xlink:href="#SvgjsSymbol1000" x="162.5" y="612.5" fill="hsl(286, 100%, 51%)"></use><use xlink:href="#SvgjsSymbol1001" x="162.5" y="612.5" fill="#fd59ff"></use><use xlink:href="#SvgjsSymbol1002" x="162.5" y="612.5" fill="#8e00cb"></use></g><g transform="translate(0 -25)"><use xlink:href="#SvgjsSymbol1000" x="175" y="662.5" fill="hsl(286, 100%, 51%)"></use><use xlink:href="#SvgjsSymbol1001" x="175" y="662.5" fill="#fd59ff"></use><use xlink:href="#SvgjsSymbol1002" x="175" y="662.5" fill="#8e00cb"></use></g><g transform="translate(0 -25)"><use xlink:href="#SvgjsSymbol1000" x="237.5" y="687.5" fill="hsl(286, 100%, 51%)"></use><use xlink:href="#SvgjsSymbol1001" x="237.5" y="687.5" fill="#fd59ff"></use><use xlink:href="#SvgjsSymbol1002" x="237.5" y="687.5" fill="#8e00cb"></use></g><g transform="translate(0 -25)"><use xlink:href="#SvgjsSymbol1000" x="275" y="700" fill="hsl(286, 100%, 51%)"></use><use xlink:href="#SvgjsSymbol1001" x="275" y="700" fill="#fd59ff"></use><use xlink:href="#SvgjsSymbol1002" x="275" y="700" fill="#8e00cb"></use></g><g transform="translate(0 -25)"><use xlink:href="#SvgjsSymbol1000" x="350" y="775" fill="hsl(286, 100%, 51%)"></use><use xlink:href="#SvgjsSymbol1001" x="350" y="775" fill="#fd59ff"></use><use xlink:href="#SvgjsSymbol1002" x="350" y="775" fill="#8e00cb"></use></g><g transform="translate(0 -25)"><use xlink:href="#SvgjsSymbol1000" x="350" y="762.5" fill="hsl(286, 100%, 51%)"></use><use xlink:href="#SvgjsSymbol1001" x="350" y="762.5" fill="#fd59ff"></use><use xlink:href="#SvgjsSymbol1002" x="350" y="762.5" fill="#8e00cb"></use></g><g transform="translate(0 -25)"><use xlink:href="#SvgjsSymbol1000" x="375" y="762.5" fill="hsl(286, 100%, 51%)"></use><use xlink:href="#SvgjsSymbol1001" x="375" y="762.5" fill="#fd59ff"></use><use xlink:href="#SvgjsSymbol1002" x="375" y="762.5" fill="#8e00cb"></use></g><g transform="translate(0 -25)"><use xlink:href="#SvgjsSymbol1000" x="425" y="775" fill="hsl(286, 100%, 51%)"></use><use xlink:href="#SvgjsSymbol1001" x="425" y="775" fill="#fd59ff"></use><use xlink:href="#SvgjsSymbol1002" x="425" y="775" fill="#8e00cb"></use></g><g transform="translate(0 -25)"><use xlink:href="#SvgjsSymbol1000" x="425" y="775" fill="hsl(286, 100%, 51%)"></use><use xlink:href="#SvgjsSymbol1001" x="425" y="775" fill="#fd59ff"></use><use xlink:href="#SvgjsSymbol1002" x="425" y="775" fill="#8e00cb"></use></g><g transform="translate(0 -25)"><use xlink:href="#SvgjsSymbol1000" x="450" y="750" fill="hsl(286, 100%, 51%)"></use><use xlink:href="#SvgjsSymbol1001" x="450" y="750" fill="#fd59ff"></use><use xlink:href="#SvgjsSymbol1002" x="450" y="750" fill="#8e00cb"></use></g><g transform="translate(0 -25)"><use xlink:href="#SvgjsSymbol1000" x="437.5" y="737.5" fill="hsl(286, 100%, 51%)"></use><use xlink:href="#SvgjsSymbol1001" x="437.5" y="737.5" fill="#fd59ff"></use><use xlink:href="#SvgjsSymbol1002" x="437.5" y="737.5" fill="#8e00cb"></use></g><g transform="translate(0 -25)"><use xlink:href="#SvgjsSymbol1000" x="375" y="725" fill="hsl(286, 100%, 51%)"></use><use xlink:href="#SvgjsSymbol1001" x="375" y="725" fill="#fd59ff"></use><use xlink:href="#SvgjsSymbol1002" x="375" y="725" fill="#8e00cb"></use></g><g transform="translate(0 -25)"><use xlink:href="#SvgjsSymbol1000" x="362.5" y="712.5" fill="hsl(286, 100%, 51%)"></use><use xlink:href="#SvgjsSymbol1001" x="362.5" y="712.5" fill="#fd59ff"></use><use xlink:href="#SvgjsSymbol1002" x="362.5" y="712.5" fill="#8e00cb"></use></g><g transform="translate(0 -25)"><use xlink:href="#SvgjsSymbol1000" x="350" y="675" fill="hsl(286, 100%, 51%)"></use><use xlink:href="#SvgjsSymbol1001" x="350" y="675" fill="#fd59ff"></use><use xlink:href="#SvgjsSymbol1002" x="350" y="675" fill="#8e00cb"></use></g><g transform="translate(0 -25)"><use xlink:href="#SvgjsSymbol1000" x="337.5" y="662.5" fill="hsl(286, 100%, 51%)"></use><use xlink:href="#SvgjsSymbol1001" x="337.5" y="662.5" fill="#fd59ff"></use><use xlink:href="#SvgjsSymbol1002" x="337.5" y="662.5" fill="#8e00cb"></use></g><g transform="translate(0 -25)"><use xlink:href="#SvgjsSymbol1000" x="350" y="612.5" fill="hsl(286, 100%, 51%)"></use><use xlink:href="#SvgjsSymbol1001" x="350" y="612.5" fill="#fd59ff"></use><use xlink:href="#SvgjsSymbol1002" x="350" y="612.5" fill="#8e00cb"></use></g><g transform="translate(0 -25)"><use xlink:href="#SvgjsSymbol1000" x="300" y="600" fill="hsl(286, 100%, 51%)"></use><use xlink:href="#SvgjsSymbol1001" x="300" y="600" fill="#fd59ff"></use><use xlink:href="#SvgjsSymbol1002" x="300" y="600" fill="#8e00cb"></use></g><g transform="translate(0 -25)"><use xlink:href="#SvgjsSymbol1000" x="237.5" y="587.5" fill="hsl(286, 100%, 51%)"></use><use xlink:href="#SvgjsSymbol1001" x="237.5" y="587.5" fill="#fd59ff"></use><use xlink:href="#SvgjsSymbol1002" x="237.5" y="587.5" fill="#8e00cb"></use></g><g transform="translate(0 -25)"><use xlink:href="#SvgjsSymbol1000" x="237.5" y="587.5" fill="hsl(286, 100%, 51%)"></use><use xlink:href="#SvgjsSymbol1001" x="237.5" y="587.5" fill="#fd59ff"></use><use xlink:href="#SvgjsSymbol1002" x="237.5" y="587.5" fill="#8e00cb"></use></g><g transform="translate(0 -25)"><use xlink:href="#SvgjsSymbol1000" x="262.5" y="562.5" fill="hsl(286, 100%, 51%)"></use><use xlink:href="#SvgjsSymbol1001" x="262.5" y="562.5" fill="#fd59ff"></use><use xlink:href="#SvgjsSymbol1002" x="262.5" y="562.5" fill="#8e00cb"></use></g><g transform="translate(0 -25)"><use xlink:href="#SvgjsSymbol1000" x="325" y="575" fill="hsl(286, 100%, 51%)"></use><use xlink:href="#SvgjsSymbol1001" x="325" y="575" fill="#fd59ff"></use><use xlink:href="#SvgjsSymbol1002" x="325" y="575" fill="#8e00cb"></use></g><g transform="translate(0 -25)"><use xlink:href="#SvgjsSymbol1000" x="412.5" y="562.5" fill="hsl(286, 100%, 51%)"></use><use xlink:href="#SvgjsSymbol1001" x="412.5" y="562.5" fill="#fd59ff"></use><use xlink:href="#SvgjsSymbol1002" x="412.5" y="562.5" fill="#8e00cb"></use></g><g transform="translate(0 -25)"><use xlink:href="#SvgjsSymbol1000" x="537.5" y="612.5" fill="hsl(286, 100%, 51%)"></use><use xlink:href="#SvgjsSymbol1001" x="537.5" y="612.5" fill="#fd59ff"></use><use xlink:href="#SvgjsSymbol1002" x="537.5" y="612.5" fill="#8e00cb"></use></g><g transform="translate(0 -25)"><use xlink:href="#SvgjsSymbol1000" x="600" y="637.5" fill="hsl(286, 100%, 51%)"></use><use xlink:href="#SvgjsSymbol1001" x="600" y="637.5" fill="#fd59ff"></use><use xlink:href="#SvgjsSymbol1002" x="600" y="637.5" fill="#8e00cb"></use></g><g transform="translate(0 -25)"><use xlink:href="#SvgjsSymbol1000" x="587.5" y="675" fill="hsl(286, 100%, 51%)"></use><use xlink:href="#SvgjsSymbol1001" x="587.5" y="675" fill="#fd59ff"></use><use xlink:href="#SvgjsSymbol1002" x="587.5" y="675" fill="#8e00cb"></use></g><g transform="translate(0 -25)"><use xlink:href="#SvgjsSymbol1000" x="562.5" y="687.5" fill="hsl(286, 100%, 51%)"></use><use xlink:href="#SvgjsSymbol1001" x="562.5" y="687.5" fill="#fd59ff"></use><use xlink:href="#SvgjsSymbol1002" x="562.5" y="687.5" fill="#8e00cb"></use></g><g transform="translate(0 -25)"><use xlink:href="#SvgjsSymbol1000" x="562.5" y="750" fill="hsl(286, 100%, 51%)"></use><use xlink:href="#SvgjsSymbol1001" x="562.5" y="750" fill="#fd59ff"></use><use xlink:href="#SvgjsSymbol1002" x="562.5" y="750" fill="#8e00cb"></use></g><g transform="translate(0 -25)"><use xlink:href="#SvgjsSymbol1000" x="575" y="762.5" fill="hsl(286, 100%, 51%)"></use><use xlink:href="#SvgjsSymbol1001" x="575" y="762.5" fill="#fd59ff"></use><use xlink:href="#SvgjsSymbol1002" x="575" y="762.5" fill="#8e00cb"></use></g><g transform="translate(0 -25)"><use xlink:href="#SvgjsSymbol1000" x="637.5" y="775" fill="hsl(286, 100%, 51%)"></use><use xlink:href="#SvgjsSymbol1001" x="637.5" y="775" fill="#fd59ff"></use><use xlink:href="#SvgjsSymbol1002" x="637.5" y="775" fill="#8e00cb"></use></g><g transform="translate(0 -25)"><use xlink:href="#SvgjsSymbol1000" x="700" y="775" fill="hsl(286, 100%, 51%)"></use><use xlink:href="#SvgjsSymbol1001" x="700" y="775" fill="#fd59ff"></use><use xlink:href="#SvgjsSymbol1002" x="700" y="775" fill="#8e00cb"></use></g><g transform="translate(0 -25)"><use xlink:href="#SvgjsSymbol1000" x="637.5" y="750" fill="hsl(286, 100%, 51%)"></use><use xlink:href="#SvgjsSymbol1001" x="637.5" y="750" fill="#fd59ff"></use><use xlink:href="#SvgjsSymbol1002" x="637.5" y="750" fill="#8e00cb"></use></g><g transform="translate(0 -25)"><use xlink:href="#SvgjsSymbol1000" x="650" y="725" fill="hsl(286, 100%, 51%)"></use><use xlink:href="#SvgjsSymbol1001" x="650" y="725" fill="#fd59ff"></use><use xlink:href="#SvgjsSymbol1002" x="650" y="725" fill="#8e00cb"></use></g><g transform="translate(0 -25)"><use xlink:href="#SvgjsSymbol1000" x="712.5" y="700" fill="hsl(286, 100%, 51%)"></use><use xlink:href="#SvgjsSymbol1001" x="712.5" y="700" fill="#fd59ff"></use><use xlink:href="#SvgjsSymbol1002" x="712.5" y="700" fill="#8e00cb"></use></g><g transform="translate(0 -25)"><use xlink:href="#SvgjsSymbol1000" x="650" y="712.5" fill="hsl(286, 100%, 51%)"></use><use xlink:href="#SvgjsSymbol1001" x="650" y="712.5" fill="#fd59ff"></use><use xlink:href="#SvgjsSymbol1002" x="650" y="712.5" fill="#8e00cb"></use></g><g transform="translate(0 -25)"><use xlink:href="#SvgjsSymbol1000" x="575" y="687.5" fill="hsl(286, 100%, 51%)"></use><use xlink:href="#SvgjsSymbol1001" x="575" y="687.5" fill="#fd59ff"></use><use xlink:href="#SvgjsSymbol1002" x="575" y="687.5" fill="#8e00cb"></use></g><g transform="translate(0 -25)"><use xlink:href="#SvgjsSymbol1000" x="537.5" y="700" fill="hsl(286, 100%, 51%)"></use><use xlink:href="#SvgjsSymbol1001" x="537.5" y="700" fill="#fd59ff"></use><use xlink:href="#SvgjsSymbol1002" x="537.5" y="700" fill="#8e00cb"></use></g><g transform="translate(0 -25)"><use xlink:href="#SvgjsSymbol1000" x="487.5" y="687.5" fill="hsl(286, 100%, 51%)"></use><use xlink:href="#SvgjsSymbol1001" x="487.5" y="687.5" fill="#fd59ff"></use><use xlink:href="#SvgjsSymbol1002" x="487.5" y="687.5" fill="#8e00cb"></use></g><g transform="translate(0 -25)"><use xlink:href="#SvgjsSymbol1000" x="512.5" y="737.5" fill="hsl(286, 100%, 51%)"></use><use xlink:href="#SvgjsSymbol1001" x="512.5" y="737.5" fill="#fd59ff"></use><use xlink:href="#SvgjsSymbol1002" x="512.5" y="737.5" fill="#8e00cb"></use></g><g transform="translate(0 -25)"><use xlink:href="#SvgjsSymbol1000" x="575" y="725" fill="hsl(286, 100%, 51%)"></use><use xlink:href="#SvgjsSymbol1001" x="575" y="725" fill="#fd59ff"></use><use xlink:href="#SvgjsSymbol1002" x="575" y="725" fill="#8e00cb"></use></g><g transform="translate(0 -25)"><use xlink:href="#SvgjsSymbol1000" x="600" y="737.5" fill="hsl(286, 100%, 51%)"></use><use xlink:href="#SvgjsSymbol1001" x="600" y="737.5" fill="#fd59ff"></use><use xlink:href="#SvgjsSymbol1002" x="600" y="737.5" fill="#8e00cb"></use></g><g transform="translate(0 -25)"><use xlink:href="#SvgjsSymbol1000" x="625" y="737.5" fill="hsl(286, 100%, 51%)"></use><use xlink:href="#SvgjsSymbol1001" x="625" y="737.5" fill="#fd59ff"></use><use xlink:href="#SvgjsSymbol1002" x="625" y="737.5" fill="#8e00cb"></use></g><g transform="translate(0 -25)"><use xlink:href="#SvgjsSymbol1000" x="612.5" y="712.5" fill="hsl(286, 100%, 51%)"></use><use xlink:href="#SvgjsSymbol1001" x="612.5" y="712.5" fill="#fd59ff"></use><use xlink:href="#SvgjsSymbol1002" x="612.5" y="712.5" fill="#8e00cb"></use></g><g transform="translate(0 -25)"><use xlink:href="#SvgjsSymbol1000" x="562.5" y="675" fill="hsl(286, 100%, 51%)"></use><use xlink:href="#SvgjsSymbol1001" x="562.5" y="675" fill="#fd59ff"></use><use xlink:href="#SvgjsSymbol1002" x="562.5" y="675" fill="#8e00cb"></use></g><g transform="translate(0 -25)"><use xlink:href="#SvgjsSymbol1000" x="700" y="125" fill="hsl(286, 100%, 51%)"></use><use xlink:href="#SvgjsSymbol1001" x="700" y="125" fill="#fd59ff"></use><use xlink:href="#SvgjsSymbol1002" x="700" y="125" fill="#8e00cb"></use></g><g transform="translate(0 -25)"><use xlink:href="#SvgjsSymbol1000" x="700" y="175" fill="hsl(286, 100%, 51%)"></use><use xlink:href="#SvgjsSymbol1001" x="700" y="175" fill="#fd59ff"></use><use xlink:href="#SvgjsSymbol1002" x="700" y="175" fill="#8e00cb"></use></g><g transform="translate(0 -25)"><use xlink:href="#SvgjsSymbol1000" x="675" y="225" fill="hsl(286, 100%, 51%)"></use><use xlink:href="#SvgjsSymbol1001" x="675" y="225" fill="#fd59ff"></use><use xlink:href="#SvgjsSymbol1002" x="675" y="225" fill="#8e00cb"></use></g><g transform="translate(0 -25)"><use xlink:href="#SvgjsSymbol1000" x="637.5" y="237.5" fill="hsl(286, 100%, 51%)"></use><use xlink:href="#SvgjsSymbol1001" x="637.5" y="237.5" fill="#fd59ff"></use><use xlink:href="#SvgjsSymbol1002" x="637.5" y="237.5" fill="#8e00cb"></use></g><g transform="translate(0 -25)"><use xlink:href="#SvgjsSymbol1000" x="612.5" y="237.5" fill="hsl(286, 100%, 51%)"></use><use xlink:href="#SvgjsSymbol1001" x="612.5" y="237.5" fill="#fd59ff"></use><use xlink:href="#SvgjsSymbol1002" x="612.5" y="237.5" fill="#8e00cb"></use></g><g transform="translate(0 -25)"><use xlink:href="#SvgjsSymbol1000" x="762.5" y="237.5" fill="hsl(286, 100%, 51%)"></use><use xlink:href="#SvgjsSymbol1001" x="762.5" y="237.5" fill="#fd59ff"></use><use xlink:href="#SvgjsSymbol1002" x="762.5" y="237.5" fill="#8e00cb"></use></g><g transform="translate(0 -25)"><use xlink:href="#SvgjsSymbol1000" x="762.5" y="212.5" fill="hsl(286, 100%, 51%)"></use><use xlink:href="#SvgjsSymbol1001" x="762.5" y="212.5" fill="#fd59ff"></use><use xlink:href="#SvgjsSymbol1002" x="762.5" y="212.5" fill="#8e00cb"></use></g><g transform="translate(0 -25)"><use xlink:href="#SvgjsSymbol1000" x="762.5" y="175" fill="hsl(286, 100%, 51%)"></use><use xlink:href="#SvgjsSymbol1001" x="762.5" y="175" fill="#fd59ff"></use><use xlink:href="#SvgjsSymbol1002" x="762.5" y="175" fill="#8e00cb"></use></g><g transform="translate(0 -25)"><use xlink:href="#SvgjsSymbol1000" x="762.5" y="150" fill="hsl(286, 100%, 51%)"></use><use xlink:href="#SvgjsSymbol1001" x="762.5" y="150" fill="#fd59ff"></use><use xlink:href="#SvgjsSymbol1002" x="762.5" y="150" fill="#8e00cb"></use></g><g transform="translate(0 -25)"><use xlink:href="#SvgjsSymbol1000" x="762.5" y="112.5" fill="hsl(286, 100%, 51%)"></use><use xlink:href="#SvgjsSymbol1001" x="762.5" y="112.5" fill="#fd59ff"></use><use xlink:href="#SvgjsSymbol1002" x="762.5" y="112.5" fill="#8e00cb"></use></g><g transform="translate(0 -25)"><use xlink:href="#SvgjsSymbol1000" x="725" y="75" fill="hsl(286, 100%, 51%)"></use><use xlink:href="#SvgjsSymbol1001" x="725" y="75" fill="#fd59ff"></use><use xlink:href="#SvgjsSymbol1002" x="725" y="75" fill="#8e00cb"></use></g><g transform="translate(0 -25)"><use xlink:href="#SvgjsSymbol1000" x="612.5" y="62.5" fill="hsl(286, 100%, 51%)"></use><use xlink:href="#SvgjsSymbol1001" x="612.5" y="62.5" fill="#fd59ff"></use><use xlink:href="#SvgjsSymbol1002" x="612.5" y="62.5" fill="#8e00cb"></use></g><g transform="translate(0 -25)"><use xlink:href="#SvgjsSymbol1000" x="612.5" y="62.5" fill="hsl(286, 100%, 51%)"></use><use xlink:href="#SvgjsSymbol1001" x="612.5" y="62.5" fill="#fd59ff"></use><use xlink:href="#SvgjsSymbol1002" x="612.5" y="62.5" fill="#8e00cb"></use></g><g transform="translate(0 -25)"><use xlink:href="#SvgjsSymbol1000" x="550" y="25" fill="hsl(286, 100%, 51%)"></use><use xlink:href="#SvgjsSymbol1001" x="550" y="25" fill="#fd59ff"></use><use xlink:href="#SvgjsSymbol1002" x="550" y="25" fill="#8e00cb"></use></g><g transform="translate(0 -25)"><use xlink:href="#SvgjsSymbol1000" x="625" y="12.5" fill="hsl(286, 100%, 51%)"></use><use xlink:href="#SvgjsSymbol1001" x="625" y="12.5" fill="#fd59ff"></use><use xlink:href="#SvgjsSymbol1002" x="625" y="12.5" fill="#8e00cb"></use></g><g transform="translate(0 -25)"><use xlink:href="#SvgjsSymbol1000" x="675" y="75" fill="hsl(286, 100%, 51%)"></use><use xlink:href="#SvgjsSymbol1001" x="675" y="75" fill="#fd59ff"></use><use xlink:href="#SvgjsSymbol1002" x="675" y="75" fill="#8e00cb"></use></g><g transform="translate(0 -25)"><use xlink:href="#SvgjsSymbol1000" x="687.5" y="62.5" fill="hsl(286, 100%, 51%)"></use><use xlink:href="#SvgjsSymbol1001" x="687.5" y="62.5" fill="#fd59ff"></use><use xlink:href="#SvgjsSymbol1002" x="687.5" y="62.5" fill="#8e00cb"></use></g><g transform="translate(0 -25)"><use xlink:href="#SvgjsSymbol1000" x="725" y="50" fill="hsl(286, 100%, 51%)"></use><use xlink:href="#SvgjsSymbol1001" x="725" y="50" fill="#fd59ff"></use><use xlink:href="#SvgjsSymbol1002" x="725" y="50" fill="#8e00cb"></use></g><g transform="translate(0 -25)"><use xlink:href="#SvgjsSymbol1000" x="775" y="12.5" fill="hsl(286, 100%, 51%)"></use><use xlink:href="#SvgjsSymbol1001" x="775" y="12.5" fill="#fd59ff"></use><use xlink:href="#SvgjsSymbol1002" x="775" y="12.5" fill="#8e00cb"></use></g><g transform="translate(0 -25)"><use xlink:href="#SvgjsSymbol1000" x="762.5" y="25" fill="hsl(286, 100%, 51%)"></use><use xlink:href="#SvgjsSymbol1001" x="762.5" y="25" fill="#fd59ff"></use><use xlink:href="#SvgjsSymbol1002" x="762.5" y="25" fill="#8e00cb"></use></g><g transform="translate(0 -25)"><use xlink:href="#SvgjsSymbol1000" x="725" y="25" fill="hsl(286, 100%, 51%)"></use><use xlink:href="#SvgjsSymbol1001" x="725" y="25" fill="#fd59ff"></use><use xlink:href="#SvgjsSymbol1002" x="725" y="25" fill="#8e00cb"></use></g><g transform="translate(0 -25)"><use xlink:href="#SvgjsSymbol1000" x="712.5" y="12.5" fill="hsl(286, 100%, 51%)"></use><use xlink:href="#SvgjsSymbol1001" x="712.5" y="12.5" fill="#fd59ff"></use><use xlink:href="#SvgjsSymbol1002" x="712.5" y="12.5" fill="#8e00cb"></use></g><g transform="translate(0 -25)"><use xlink:href="#SvgjsSymbol1000" x="700" y="112.5" fill="hsl(286, 100%, 51%)"></use><use xlink:href="#SvgjsSymbol1001" x="700" y="112.5" fill="#fd59ff"></use><use xlink:href="#SvgjsSymbol1002" x="700" y="112.5" fill="#8e00cb"></use></g><g transform="translate(0 -25)"><use xlink:href="#SvgjsSymbol1000" x="637.5" y="162.5" fill="hsl(286, 100%, 51%)"></use><use xlink:href="#SvgjsSymbol1001" x="637.5" y="162.5" fill="#fd59ff"></use><use xlink:href="#SvgjsSymbol1002" x="637.5" y="162.5" fill="#8e00cb"></use></g><g transform="translate(0 -25)"><use xlink:href="#SvgjsSymbol1000" x="700" y="87.5" fill="hsl(286, 100%, 51%)"></use><use xlink:href="#SvgjsSymbol1001" x="700" y="87.5" fill="#fd59ff"></use><use xlink:href="#SvgjsSymbol1002" x="700" y="87.5" fill="#8e00cb"></use></g></g><symbol id="SvgjsSymbol1000"><polygon points="0,12.5 25,0 50,12.5 25,25"></polygon></symbol><symbol id="SvgjsSymbol1001"><polygon points="0,12.5 25,25 25,50 0,37.5"></polygon></symbol><symbol id="SvgjsSymbol1002"><polygon points="25,25 50,12.5 50,37.5 25,50"></polygon></symbol><g></g><symbol id="SvgjsSymbol1003"><polygon points="0,18.75 37.5,0 75,18.75 37.5,37.5"></polygon></symbol><symbol id="SvgjsSymbol1004"><polygon points="0,18.75 37.5,37.5 37.5,75 0,56.25"></polygon></symbol><symbol id="SvgjsSymbol1005"><polygon points="37.5,37.5 75,18.75 75,56.25 37.5,75"></polygon></symbol><symbol id="SvgjsSymbol1006"><polygon points="0,25 50,0 100,25 50,50"></polygon></symbol><symbol id="SvgjsSymbol1007"><polygon points="0,25 50,50 50,100 0,75"></polygon></symbol><symbol id="SvgjsSymbol1008"><polygon points="50,50 100,25 100,75 50,100"></polygon></symbol><symbol id="SvgjsSymbol1009"><polygon points="0,18.75 37.5,0 75,18.75 37.5,37.5"></polygon></symbol><symbol id="SvgjsSymbol1010"><polygon points="0,18.75 37.5,37.5 37.5,75 0,56.25"></polygon></symbol><symbol id="SvgjsSymbol1011"><polygon points="37.5,37.5 75,18.75 75,56.25 37.5,75"></polygon></symbol><symbol id="SvgjsSymbol1012"><polygon points="0,12.5 25,0 50,12.5 25,25"></polygon></symbol><symbol id="SvgjsSymbol1013"><polygon points="0,12.5 25,25 25,50 0,37.5"></polygon></symbol><symbol id="SvgjsSymbol1014"><polygon points="25,25 50,12.5 50,37.5 25,50"></polygon></symbol></svg>